<svg xmlns="http://www.w3.org/2000/svg" viewBox="0 0 24 24" enable-background="new 0 0 24 24" width="48" height="48" style="fill: rgb(255, 255, 255);">
    <path d="M 4 4 C 2.895 4 2 4.895 2 6 L 2 18 C 2 18.82875 2.5008594 19.540234 3.21875 19.84375 C 3.2269112 19.847774 3.2417356 19.839859 3.25 19.84375 C 3.3614944 19.888966 3.4732922 19.944116 3.59375 19.96875 C 3.7255884 19.999409 3.8515156 20 4 20 L 18 20 C 18.285928 20 18.566562 19.951733 18.8125 19.84375 C 19.603656 19.540234 20.29975 18.82875 20.5 18 L 21.9375 12 C 22.2045 10.895 21.51025 10 20.40625 10 L 20 10 L 6.40625 10 L 6 10 L 6 9 L 20 9 L 20 8 C 20 6.895 19.105 6 18 6 L 11 6 L 9 4 L 4 4 z"/>
</svg>